<?xml version="1.0" encoding="UTF-8" standalone="no"?>
<!-- Generator: Adobe Illustrator 21.1.0, SVG Export Plug-In . SVG Version: 6.00 Build 0)  -->
<svg version="1.1" id="Warstwa_1" x="0px" y="0px" viewBox="0 0 55.400001 21.200001" xml:space="preserve" sodipodi:docname="EIC-2024.svg" width="55.400002" height="21.200001" inkscape:version="1.3 (0e150ed6c4, 2023-07-21)" xmlns:inkscape="http://www.inkscape.org/namespaces/inkscape" xmlns:sodipodi="http://sodipodi.sourceforge.net/DTD/sodipodi-0.dtd" xmlns="http://www.w3.org/2000/svg" xmlns:svg="http://www.w3.org/2000/svg"><defs id="defs12">
	
	
	
	
	
	
	
	
	
	
	
	
	
	
	
	
	
	
</defs><sodipodi:namedview id="namedview12" pagecolor="#ffffff" bordercolor="#666666" borderopacity="1.0" inkscape:showpageshadow="2" inkscape:pageopacity="0.0" inkscape:pagecheckerboard="0" inkscape:deskcolor="#d1d1d1" inkscape:zoom="16.959209" inkscape:cx="22.996356" inkscape:cy="13.650401" inkscape:window-width="1920" inkscape:window-height="1137" inkscape:window-x="-8" inkscape:window-y="-8" inkscape:window-maximized="1" inkscape:current-layer="Warstwa_1"/>
<style type="text/css" id="style1">
	.st0{fill-rule:evenodd;clip-rule:evenodd;fill:#002D58;}
	.st1{fill-rule:evenodd;clip-rule:evenodd;fill:#E95A1D;stroke:#E20613;stroke-miterlimit:22.9256;}
	.st2{fill-rule:evenodd;clip-rule:evenodd;fill:#E95A1D;}
</style>
<polygon class="st0" points="223.1,51.2 227.8,51.2 218.2,72.3 213.5,72.3 " id="polygon2" transform="translate(-193.7,-51.2)" style="fill:#aaaaaa;fill-opacity:1"/><polygon class="st0" points="274,54.8 271.9,59.3 282,59.3 280.4,62.9 270.3,62.9 267.8,68.4 279.4,68.4 277.6,72.3 261.7,72.3 271.4,51.2 286.7,51.2 285,54.8 " id="polygon5" style="fill:#aaaaaa;fill-opacity:1" transform="translate(-261.7,-51.2)"/><path class="st0" d="m 38.2,21.1 c -2.5,0 -4.4,-0.2 -5.7,-1.8 C 31.1,17.6 31.3,14.8 33.1,11 36.5,3.6 41.2,0.1 48,0.1 h 7.4 l -1.6,3.6 h -7.5 c -3.7,0 -6.2,2.3 -8.6,7.5 -2.2,4.7 -1.4,6.3 2.3,6.3 h 7.3 l -1.7,3.7 h -7.4 z" id="path6" style="fill:#aaaaaa;fill-opacity:1"/>
</svg>